# xmcd
#
# Track frame offsets:
#	150
#	16253
#	29068
#	40605
#	53516
#	67504
#	79902
#	92865
#	107972
#	121007
#
# Disc length: 1777
#
# Revision: 2
# Processed by: cddbd v1.5.1PL0 Copyright (c) Steve Scherf et al.
# Submitted via: audiograbber 1.81.02
# Normalized: r1:DSETVAR1,TDELIM( - )
#
DISCID=7106ef0a
DTITLE=Various Artist - oh Brother best of southern blues
DYEAR=2002
DGENRE=Blues
TTITLE0=Bessie Tucker - Penitentiary
TTITLE1=Sonny Boy Williamson - I'm Dealing With The Devil
TTITLE2=Muddy Waters - Burying Ground Blues
TTITLE3=Blind Blake - Police Dog Blues
TTITLE4=Lucille Hagamin - Land Of Cotton Blues
TTITLE5=Blind Boy Fuller and Sonny Terry - Bus Rider Blues
TTITLE6=Skip James - Hard Time Killin Floor Blues
TTITLE7=Hot Lips Page - Uncle Sam Blues
TTITLE8=Big Maceo - County Jail Blues
TTITLE9=Peetie Wheatstraw - Gangsters Blues
EXTD=
EXTT0=
EXTT1=
EXTT2=
EXTT3=
EXTT4=
EXTT5=
EXTT6=
EXTT7=
EXTT8=
EXTT9=
PLAYORDER=
